<svg xmlns="http://www.w3.org/2000/svg" width="1200" height="675" viewBox="0 0 1200 675" role="img">
  <rect width="1200" height="675" fill="#14140f"/>
  <rect x="260" y="56" width="940" height="619" fill="#191914"/>
  <line x1="260" y1="56" x2="260" y2="675" stroke="#33332c" stroke-width="1" opacity=".45"/>
  <line x1="308" y1="56" x2="308" y2="675" stroke="#33332c" stroke-width="1" opacity=".45"/>
  <line x1="356" y1="56" x2="356" y2="675" stroke="#33332c" stroke-width="1" opacity=".45"/>
  <line x1="404" y1="56" x2="404" y2="675" stroke="#33332c" stroke-width="1" opacity=".45"/>
  <line x1="452" y1="56" x2="452" y2="675" stroke="#33332c" stroke-width="1" opacity=".45"/>
  <line x1="500" y1="56" x2="500" y2="675" stroke="#33332c" stroke-width="1" opacity=".45"/>
  <line x1="548" y1="56" x2="548" y2="675" stroke="#33332c" stroke-width="1" opacity=".45"/>
  <line x1="596" y1="56" x2="596" y2="675" stroke="#33332c" stroke-width="1" opacity=".45"/>
  <line x1="644" y1="56" x2="644" y2="675" stroke="#33332c" stroke-width="1" opacity=".45"/>
  <line x1="692" y1="56" x2="692" y2="675" stroke="#33332c" stroke-width="1" opacity=".45"/>
  <line x1="740" y1="56" x2="740" y2="675" stroke="#33332c" stroke-width="1" opacity=".45"/>
  <line x1="788" y1="56" x2="788" y2="675" stroke="#33332c" stroke-width="1" opacity=".45"/>
  <line x1="836" y1="56" x2="836" y2="675" stroke="#33332c" stroke-width="1" opacity=".45"/>
  <line x1="884" y1="56" x2="884" y2="675" stroke="#33332c" stroke-width="1" opacity=".45"/>
  <line x1="932" y1="56" x2="932" y2="675" stroke="#33332c" stroke-width="1" opacity=".45"/>
  <line x1="980" y1="56" x2="980" y2="675" stroke="#33332c" stroke-width="1" opacity=".45"/>
  <line x1="1028" y1="56" x2="1028" y2="675" stroke="#33332c" stroke-width="1" opacity=".45"/>
  <line x1="1076" y1="56" x2="1076" y2="675" stroke="#33332c" stroke-width="1" opacity=".45"/>
  <line x1="1124" y1="56" x2="1124" y2="675" stroke="#33332c" stroke-width="1" opacity=".45"/>
  <line x1="1172" y1="56" x2="1172" y2="675" stroke="#33332c" stroke-width="1" opacity=".45"/>
  <line x1="260" y1="56" x2="1200" y2="56" stroke="#33332c" stroke-width="1" opacity=".45"/>
  <line x1="260" y1="104" x2="1200" y2="104" stroke="#33332c" stroke-width="1" opacity=".45"/>
  <line x1="260" y1="152" x2="1200" y2="152" stroke="#33332c" stroke-width="1" opacity=".45"/>
  <line x1="260" y1="200" x2="1200" y2="200" stroke="#33332c" stroke-width="1" opacity=".45"/>
  <line x1="260" y1="248" x2="1200" y2="248" stroke="#33332c" stroke-width="1" opacity=".45"/>
  <line x1="260" y1="296" x2="1200" y2="296" stroke="#33332c" stroke-width="1" opacity=".45"/>
  <line x1="260" y1="344" x2="1200" y2="344" stroke="#33332c" stroke-width="1" opacity=".45"/>
  <line x1="260" y1="392" x2="1200" y2="392" stroke="#33332c" stroke-width="1" opacity=".45"/>
  <line x1="260" y1="440" x2="1200" y2="440" stroke="#33332c" stroke-width="1" opacity=".45"/>
  <line x1="260" y1="488" x2="1200" y2="488" stroke="#33332c" stroke-width="1" opacity=".45"/>
  <line x1="260" y1="536" x2="1200" y2="536" stroke="#33332c" stroke-width="1" opacity=".45"/>
  <line x1="260" y1="584" x2="1200" y2="584" stroke="#33332c" stroke-width="1" opacity=".45"/>
  <line x1="260" y1="632" x2="1200" y2="632" stroke="#33332c" stroke-width="1" opacity=".45"/>
  <polygon points="614.5,300.5 587.9,356.2 502.9,374.0 459.5,323.6 437.1,269.6 510.3,250.5 594.4,238.9" fill="#2f6f4f" fill-opacity="0.17" stroke="#2f6f4f" stroke-width="2"/>
  <polygon points="795.9,175.9 763.1,222.9 692.6,234.3 611.8,210.4 635.0,149.5 695.2,126.0 770.3,122.4" fill="#2f6f4f" fill-opacity="0.22" stroke="#2f6f4f" stroke-width="2"/>
  <polygon points="1051.6,534.5 1030.0,597.7 941.8,591.5 896.2,556.6 882.4,507.6 933.7,451.8 1023.2,477.3" fill="#2f6f4f" fill-opacity="0.23" stroke="#2f6f4f" stroke-width="2"/>
  <polygon points="678.2,197.6 634.0,240.8 560.8,277.4 466.3,239.1 517.3,173.7 562.2,122.1 649.9,140.0" fill="#2f6f4f" fill-opacity="0.24" stroke="#2f6f4f" stroke-width="2"/>
  <polygon points="1145.4,203.3 1111.4,232.3 1063.0,254.6 1017.1,224.9 1003.1,176.9 1068.5,169.6 1118.7,167.7" fill="#2f6f4f" fill-opacity="0.17" stroke="#2f6f4f" stroke-width="2"/>
  <path d="M 270 308.5321913380176 L 370 326 L 470 321 L 570 256 L 670 230 L 770 161 L 870 191 L 970 137 L 1070 66 L 1170 131" fill="none" stroke="#2f6f4f" stroke-width="4" stroke-linecap="round" opacity=".85"/>
  <circle cx="653" cy="599" r="5" fill="#2f6f4f" stroke="#1e1e19" stroke-width="2"/>
  <circle cx="364" cy="127" r="5" fill="#2f6f4f" stroke="#1e1e19" stroke-width="2"/>
  <circle cx="777" cy="264" r="5" fill="#2f6f4f" stroke="#1e1e19" stroke-width="2"/>
  <circle cx="914" cy="323" r="5" fill="#2f6f4f" stroke="#1e1e19" stroke-width="2"/>
  <circle cx="812" cy="392" r="5" fill="#2f6f4f" stroke="#1e1e19" stroke-width="2"/>
  <circle cx="1101" cy="432" r="5" fill="#2f6f4f" stroke="#1e1e19" stroke-width="2"/>
  <circle cx="1117" cy="157" r="5" fill="#2f6f4f" stroke="#1e1e19" stroke-width="2"/>
  <circle cx="1118" cy="313" r="5" fill="#2f6f4f" stroke="#1e1e19" stroke-width="2"/>
  <circle cx="569" cy="267" r="5" fill="#2f6f4f" stroke="#1e1e19" stroke-width="2"/>
  <circle cx="1056" cy="598" r="5" fill="#2f6f4f" stroke="#1e1e19" stroke-width="2"/>
  <circle cx="530" cy="445" r="5" fill="#2f6f4f" stroke="#1e1e19" stroke-width="2"/>
  <circle cx="762" cy="180" r="5" fill="#2f6f4f" stroke="#1e1e19" stroke-width="2"/>

  <rect x="0" y="0" width="1200" height="56" fill="#1e1e19"/>
  <line x1="0" y1="56" x2="1200" y2="56" stroke="#33332c" stroke-width="1"/>
  <circle cx="34" cy="28" r="10" fill="#2f6f4f"/>
  <text x="56" y="34" font-family="system-ui, sans-serif" font-size="15" font-weight="600" fill="#e9e8e2">통합 공간정보 플랫폼 — 공간분석</text>
  <rect x="900" y="14" width="140" height="28" rx="14" fill="#14140f" stroke="#33332c"/>
  <text x="916" y="33" font-family="system-ui, sans-serif" font-size="12" fill="#8f8d84">주소 · 지번 검색</text>
  <rect x="1052" y="14" width="120" height="28" rx="6" fill="#2f6f4f"/>
  <text x="1072" y="33" font-family="system-ui, sans-serif" font-size="12" font-weight="600" fill="#14140f">분석 실행</text>

  <rect x="0" y="56" width="260" height="619" fill="#1e1e19"/>
  <line x1="260" y1="56" x2="260" y2="675" stroke="#33332c" stroke-width="1"/>
  <text x="24" y="98" font-family="system-ui, sans-serif" font-size="12" font-weight="700" fill="#8f8d84" letter-spacing="1">LAYERS</text>
  
    <rect x="24" y="132" width="14" height="14" rx="3" fill="#2f6f4f" stroke="#2f6f4f" stroke-width="2"/>
    <text x="50" y="144" font-family="system-ui, sans-serif" font-size="14" fill="#e9e8e2">분석 대상</text>
    <rect x="24" y="172" width="14" height="14" rx="3" fill="#2f6f4f" stroke="#2f6f4f" stroke-width="2"/>
    <text x="50" y="184" font-family="system-ui, sans-serif" font-size="14" fill="#e9e8e2">버퍼 300m</text>
    <rect x="24" y="212" width="14" height="14" rx="3" fill="#2f6f4f" stroke="#2f6f4f" stroke-width="2"/>
    <text x="50" y="224" font-family="system-ui, sans-serif" font-size="14" fill="#e9e8e2">중첩 결과</text>
    <rect x="24" y="252" width="14" height="14" rx="3" fill="none" stroke="#8f8d84" stroke-width="2"/>
    <text x="50" y="264" font-family="system-ui, sans-serif" font-size="14" fill="#8f8d84">통계 격자</text>
    <rect x="24" y="292" width="14" height="14" rx="3" fill="none" stroke="#8f8d84" stroke-width="2"/>
    <text x="50" y="304" font-family="system-ui, sans-serif" font-size="14" fill="#8f8d84">보고서</text>

  <rect x="970" y="535" width="206" height="116" rx="10" fill="#1e1e19" stroke="#33332c"/>
  <text x="986" y="557" font-family="system-ui, sans-serif" font-size="12" font-weight="700" fill="#8f8d84" letter-spacing="1">LEGEND</text>
  
    <rect x="986" y="559" width="12" height="12" rx="2" fill="#2f6f4f" fill-opacity="1"/>
    <text x="1006" y="570" font-family="system-ui, sans-serif" font-size="12" fill="#e9e8e2">상위 20%</text>
    <rect x="986" y="585" width="12" height="12" rx="2" fill="#2f6f4f" fill-opacity="0.72"/>
    <text x="1006" y="596" font-family="system-ui, sans-serif" font-size="12" fill="#e9e8e2">중위</text>
    <rect x="986" y="611" width="12" height="12" rx="2" fill="#2f6f4f" fill-opacity="0.43999999999999995"/>
    <text x="1006" y="622" font-family="system-ui, sans-serif" font-size="12" fill="#e9e8e2">하위 20%</text>

  <rect x="284" y="631" width="90" height="4" rx="2" fill="#e9e8e2" opacity=".55"/>
  <text x="284" y="621" font-family="system-ui, sans-serif" font-size="11" fill="#8f8d84">500 m</text>
  <text x="940" y="515" text-anchor="end" font-family="system-ui, sans-serif" font-size="12" fill="#8f8d84">스크린샷 자리 · 실제 이미지로 교체하세요</text>
</svg>
